PathFileType	4	(X/Y/Z)	s04c0102.trc
DataRate	CameraRate	NumFrames	NumMarkers	Units	OrigDataRate	OrigDataStartFrame	OrigNumFrames
200	200	6	50	mm	200	1750	2000
Frame#	Time	racr			lacr			c7			jug			rlel			rdr			llel			ldr			s2			lic			ric			lasi			rasi			rpsi			lpsi			rgt			lgt			rth1			rth2			rth3			rth4			rlfc			rmfc			rsh1			rsh2			rsh3			rsh4			rlmal			rmmal			rcal			rtoe			rmt5			lth1			lth2			lth4			lth3			llfc			lmfc			lsh1			lsh2			lsh3			lsh4			llmal			lmmal			lcal			ltoe			lmt5			SBIKE			LBIKE			RBIKE			
		X1	Y1	Z1	X2	Y2	Z2	X3	Y3	Z3	X4	Y4	Z4	X5	Y5	Z5	X6	Y6	Z6	X7	Y7	Z7	X8	Y8	Z8	X9	Y9	Z9	X10	Y10	Z10	X11	Y11	Z11	X12	Y12	Z12	X13	Y13	Z13	X14	Y14	Z14	X15	Y15	Z15	X16	Y16	Z16	X17	Y17	Z17	X18	Y18	Z18	X19	Y19	Z19	X20	Y20	Z20	X21	Y21	Z21	X22	Y22	Z22	X23	Y23	Z23	X24	Y24	Z24	X25	Y25	Z25	X26	Y26	Z26	X27	Y27	Z27	X28	Y28	Z28	X29	Y29	Z29	X30	Y30	Z30	X31	Y31	Z31	X32	Y32	Z32	X33	Y33	Z33	X34	Y34	Z34	X35	Y35	Z35	X36	Y36	Z36	X37	Y37	Z37	X38	Y38	Z38	X39	Y39	Z39	X40	Y40	Z40	X41	Y41	Z41	X42	Y42	Z42	X43	Y43	Z43	X44	Y44	Z44	X45	Y45	Z45	X46	Y46	Z46	X47	Y47	Z47	X48	Y48	Z48	X49	Y49	Z49	X50	Y50	Z50	
1750	8.7500	505.455318	1343.899461	-159.481906	499.265092	1327.509848	-434.335211	488.486171	1396.840375	-296.703922	441.847338	1245.511510	-296.845133	455.740231	1059.532340	-10.054104	688.318211	911.016275	-110.819037	445.428373	1061.840081	-557.327622	680.105274	911.110842	-484.313047	-77.717627	1169.512752	-290.803919	71.537426	1191.552683	-449.191125	74.908724	1182.040873	-126.063195	114.131749	1152.110744	-404.404304	114.553133	1148.669076	-136.845920	-49.517844	1213.076262	-246.433148	-52.162807	1219.602380	-320.933931	29.313030	1116.168478	-113.165016	50.373020	1105.616231	-477.507771	130.053051	985.489122	-85.483249	199.778794	930.983188	-86.262734	234.855532	853.012825	-85.542543	226.694066	952.237906	-101.510244	301.777560	725.822142	-102.297407	289.022592	708.602341	-216.604521	217.698169	632.042552	-82.353774	180.242914	550.731848	-101.342585	107.374927	505.503672	-113.540996	207.868578	533.880872	-123.026799	21.326730	381.096221	-126.828406	50.382466	378.663371	-210.319201	-51.332126	382.694219	-173.177287	203.467835	220.733676	-157.597963	130.977790	232.264752	-105.431031	121.881446	1046.814342	-478.783931	207.119140	1030.739490	-478.391836	222.525724	1062.690511	-469.475374	274.282978	972.120526	-477.168434	405.105245	879.863703	-448.981279	433.266155	861.316710	-339.017016	386.437054	763.114305	-473.177649	376.513109	678.229124	-452.966766	326.286478	605.016422	-453.632202	400.994657	672.595884	-422.525203	267.095205	473.631099	-450.889692	262.415930	472.505390	-363.241683	185.963629	449.760976	-410.610767	486.231425	435.972726	-419.375585	415.687542	398.217411	-480.191229	-185.648174	933.307419	-285.867174	-17.355423	79.302006	-485.587727	-17.439772	79.256630	-84.814027	
1751	8.7550	503.326187	1346.633226	-157.972015	498.667565	1330.583078	-434.073565	486.526471	1400.006554	-295.481541	441.512146	1248.248319	-295.936022	456.650123	1061.383135	-9.794198	688.197861	911.191305	-110.848621	446.845729	1064.334819	-557.563110	680.483967	910.970176	-484.283403	-78.324714	1167.510342	-291.617433	71.690005	1190.016972	-449.993416	74.017313	1181.325630	-126.656569	114.035678	1148.991260	-403.849287	113.775740	1148.431755	-137.531731	-50.563738	1211.317896	-247.329137	-52.762257	1217.429543	-322.086263	28.752115	1115.077844	-113.572755	50.837020	1100.133341	-477.234235	131.392233	986.696079	-86.342419	202.181098	933.737435	-86.072366	238.605134	856.194923	-85.573065	228.638978	955.160273	-102.138271	306.769492	729.703213	-101.746637	294.351543	712.553476	-216.044665	221.161994	637.659964	-82.036455	181.968233	557.301221	-101.170994	107.961309	513.598977	-113.693532	209.174958	539.973725	-122.997272	19.102957	391.765187	-127.520779	48.266658	388.843236	-210.746332	-53.505382	394.477837	-173.583856	198.843053	228.817782	-157.718738	126.684822	241.536254	-105.495351	122.364058	1041.394007	-478.778129	207.397364	1023.999131	-478.251340	223.294587	1055.765955	-469.653195	273.706490	964.331275	-476.512412	401.970259	869.541228	-447.843834	430.744749	850.690622	-338.228399	384.302317	751.689371	-472.774978	375.996172	666.810876	-452.153558	327.501256	592.543415	-452.726000	400.533655	661.792947	-421.513807	269.909682	461.117598	-450.794512	265.796890	459.195553	-362.659624	188.907057	435.826130	-410.786753	489.664829	427.608064	-419.153450	419.882333	388.664385	-480.108094	-185.630862	933.265131	-285.936747	-17.464584	79.156684	-485.465047	-17.446831	79.244626	-84.816557	
1752	8.7600	501.124546	1349.680507	-156.487214	498.183751	1333.973301	-434.020049	484.589732	1403.295868	-294.196188	441.229789	1251.082697	-295.071166	457.651840	1063.390841	-9.408504	688.248854	911.519627	-110.744358	448.487621	1066.998092	-557.698748	680.895263	910.866435	-484.258465	-78.477181	1165.356599	-293.478685	71.819978	1188.606343	-450.751849	73.160625	1180.841055	-127.206494	114.841398	1146.619614	-404.998271	113.019047	1148.301324	-138.249067	-51.658736	1209.695732	-248.199061	-53.922663	1215.544097	-322.879468	28.205712	1114.251802	-113.825324	51.347779	1094.912586	-476.966309	132.609638	988.239676	-86.645820	204.258513	936.102005	-87.211287	242.156425	859.499707	-85.256228	230.394553	958.514924	-102.942018	311.506798	733.540725	-101.330247	299.381658	716.605502	-215.550492	224.495885	643.512050	-81.874294	185.140018	564.332077	-100.493193	108.980506	521.857619	-114.033009	210.440985	546.044034	-122.950633	16.647446	401.761485	-128.306932	46.416817	398.862225	-211.130308	-55.374146	406.077708	-173.877893	194.764402	237.416944	-157.906631	122.870762	251.083342	-105.568068	123.002588	1036.209274	-479.043870	207.635416	1017.230778	-477.898223	224.159425	1049.114802	-469.843072	273.071476	956.958312	-476.126159	398.690462	859.280689	-447.096762	426.048848	840.059239	-337.874757	381.792577	741.477127	-472.528348	375.008769	656.632018	-451.766261	327.970588	581.484770	-452.167245	399.741115	652.009040	-421.563221	272.265377	448.984378	-450.884426	268.661918	447.924052	-362.494406	191.764206	422.627356	-411.052686	492.679943	418.862917	-419.019757	423.512412	378.793526	-479.937680	-185.683314	933.232150	-286.004089	-17.435939	79.080484	-485.497689	-17.450049	79.223331	-84.820170	
1753	8.7650	499.030669	1352.455276	-154.921901	497.588765	1336.681885	-433.563081	482.601959	1406.657223	-292.918702	440.809549	1254.000249	-294.184079	458.710239	1065.515435	-8.830126	688.452136	912.041016	-110.535999	450.288064	1069.962822	-557.829408	681.289419	910.820337	-484.231606	-78.912456	1163.566652	-294.287460	71.915320	1187.360684	-451.421797	72.188495	1180.471545	-128.153957	115.400074	1145.218297	-405.763426	112.283478	1148.290035	-138.994505	-55.723778	1209.684424	-246.835856	-55.475665	1213.856782	-322.912148	27.923210	1113.440785	-114.414772	51.912976	1090.417747	-476.710439	133.822317	989.588261	-88.150006	206.349353	938.959544	-87.197586	245.509616	862.863778	-84.937659	231.754248	960.702807	-103.859765	316.157422	737.671769	-100.969040	304.573713	720.707998	-214.812914	227.575367	649.339504	-81.827347	186.742162	571.126632	-100.554177	109.736279	530.184736	-114.194871	211.659034	552.265933	-123.126056	15.116430	412.244583	-128.705127	44.350072	409.548371	-211.717283	-57.158201	417.556376	-174.295246	191.390948	246.780191	-157.994860	119.699232	261.024368	-105.655885	123.730340	1031.510338	-479.537937	208.005558	1011.026275	-477.952526	225.037273	1042.662457	-470.064499	272.354171	949.681810	-475.587820	395.107774	849.676747	-446.660633	422.338791	830.650306	-337.269707	379.077189	731.905645	-471.980460	373.695333	646.884996	-451.692194	327.867138	571.077544	-452.143770	398.739500	642.586542	-421.700175	274.325819	437.115572	-450.987647	271.174457	436.713639	-362.639318	194.554817	409.620523	-411.087600	495.266917	409.557170	-418.894806	426.580995	368.759947	-479.875131	-185.704125	933.182524	-286.135743	-17.437402	79.049774	-485.496635	-17.446634	79.230485	-84.808096	
1754	8.7700	496.854837	1355.540507	-153.475633	496.756855	1340.013608	-432.695863	480.611759	1410.113133	-291.701244	440.401599	1256.979404	-293.272201	459.834486	1067.709037	-8.098734	688.589369	912.489534	-110.299158	452.213236	1072.997277	-557.855145	681.727464	910.835437	-484.257914	-79.256900	1162.076673	-295.168148	72.144368	1186.498168	-452.188259	71.237881	1180.409255	-128.541079	115.960135	1144.452226	-406.669896	111.569741	1148.406855	-139.763571	-56.521315	1208.584981	-247.920273	-56.721129	1211.943957	-324.280067	27.739163	1112.840323	-115.277437	52.383964	1086.610207	-476.563862	134.909042	991.107525	-88.939512	208.170187	941.573123	-88.196953	248.590479	866.345913	-84.753323	233.484702	964.389528	-103.460071	320.618042	741.911775	-100.766218	309.389976	724.909002	-214.497586	230.752293	655.451444	-81.846031	186.885072	577.597664	-101.429215	110.723145	538.623176	-114.357081	213.105379	558.799479	-123.170076	13.843588	422.776136	-129.185951	43.135943	419.552254	-212.323979	-58.733043	428.806255	-174.719503	188.619393	256.236141	-158.219779	117.036069	271.048909	-105.735233	124.421279	1027.077327	-480.177800	208.315467	1005.136476	-478.062498	225.896741	1036.471738	-470.311783	271.516886	942.582303	-475.186120	391.251989	840.713649	-446.531139	418.396693	822.048033	-336.381731	376.060669	722.741730	-471.575261	372.125992	637.387446	-451.747841	327.424191	560.872846	-452.325537	397.258359	633.320488	-421.765976	276.308887	425.444990	-451.190747	272.920450	424.230088	-361.797642	196.640718	397.289646	-411.477177	497.440315	399.933632	-418.756751	429.168064	358.531341	-479.776549	-185.739801	933.164471	-286.369170	-17.447754	79.018950	-485.513731	-17.447569	79.228779	-84.826581	
1755	8.7750	494.878233	1358.431027	-151.908217	494.827243	1342.875531	-430.493217	478.683897	1413.677085	-290.492487	440.003844	1260.234352	-292.507536	461.052375	1069.914600	-7.142410	688.080313	912.566179	-109.901728	454.256639	1076.197649	-557.841629	682.166478	910.870679	-484.363808	-79.468417	1160.863076	-295.944555	72.429984	1185.945678	-452.919778	70.244564	1180.626149	-128.918100	116.526602	1143.848567	-407.590575	110.879000	1148.657958	-140.551015	-57.023695	1207.928453	-249.367126	-57.583234	1210.625893	-324.782525	27.571831	1112.538048	-115.870470	52.800314	1083.704120	-476.513825	135.997759	992.929706	-89.424320	209.915610	944.437303	-88.709355	251.567272	869.935570	-84.655152	234.940373	967.558609	-104.171791	324.988033	746.401813	-100.710962	314.070016	729.491080	-214.395487	233.957313	661.730169	-81.941541	188.193629	584.593926	-102.340031	111.822765	547.184986	-114.583603	214.559728	565.362290	-123.460290	12.908560	433.278890	-129.633181	41.815785	429.948931	-212.864861	-60.112134	440.208099	-175.175226	186.372571	266.179515	-158.467197	115.063593	281.476670	-105.714433	125.035987	1023.213946	-480.785652	208.468227	999.501146	-478.293487	226.642927	1030.507487	-470.585132	270.323853	935.791792	-474.908162	386.934438	832.329460	-446.618151	414.155599	813.581116	-335.922113	373.031474	713.559742	-471.451918	370.277464	628.164227	-451.861427	326.570957	551.065369	-452.727445	395.380477	624.235197	-421.847580	277.828833	414.196692	-451.664914	274.102690	413.303139	-362.171058	198.302352	386.631555	-413.086355	499.125428	389.948142	-418.418007	431.293272	348.141058	-479.579130	-185.797434	933.144420	-286.540402	-17.451687	79.028013	-485.514375	-17.461917	79.222938	-84.838090	
